<svg xmlns="http://www.w3.org/2000/svg" version="1.1" xmlns:xlink="http://www.w3.org/1999/xlink" width="251.98" height="252"><svg id="SvgjsSvg1032" data-name="Layer 2" xmlns="http://www.w3.org/2000/svg" viewBox="0 0 251.98 252">
  <defs>
    <style>
      .cls-1 {
        fill: #faa41a;
      }
    </style>
  </defs>
  <g id="SvgjsG1031" data-name="Layer 1">
    <path class="cls-1" d="M71.57,190.32l-8.41,9.97-2.61-2.27,8.68-9.68c-1.37-1.27-2.42-2.42-3.76-3.61l1.94-1.94c3.31,3.13,6.22,5.55,9.87,8.49l-1.68,2.14c-1.33-1.04-2.7-2.04-4.04-3.1ZM54.73,165.53l-13.63,7.96c.49.95,1.01,2.08,1.61,2.99l13.66-7.98c-.67-1.2-1.04-1.85-1.64-2.97ZM63.48,178.24l-7.38,6.38,3.76-10.94c-.67-.94-.97-1.59-1.67-2.45l-13.23,8.98c.59.89,1.31,1.71,1.94,2.63l7.96-5.51-3.73,11.02c.65.73,1.3,1.84,2.21,2.58l12.24-10.5c-.68-.72-1.5-1.37-2.1-2.19ZM81.44,197.79c2.15,1.17,4.25,2.39,6.6,3.5l1.41-2.33c-3.25-1.68-6.31-3.61-9.05-5.51l-8.98,13.19c3.4,2.26,6.52,4.14,10.02,6.16l1.45-2.33-7.25-4.27,2.45-3.44,4.8,2.88,1.4-2.24c-1.54-.85-3.15-1.83-4.83-2.85l1.98-2.76ZM125.88,148.64c-12.41,0-22.56-10.19-22.56-22.57s10.14-22.61,22.56-22.61,22.55,10.13,22.55,22.61-10.1,22.57-22.55,22.57ZM126.16,141.18c8.24,0,15.01-6.77,15.01-15.01,0-6.85-4.76-12.81-11.32-14.44-.08-.67-.26-3.8-.26-3.8h-7.57s-.17,3.4-.23,4.08c-6.29,1.91-10.53,7.64-10.53,14.17,0,8.25,6.77,15.01,14.91,15.01ZM93,40.81v-.74c-.08-4.08,3.05-7.45,7.16-7.78,4.35-.42,8.21,2.77,8.57,7.14v.63c0,4.08-3.08,7.56-7.26,7.95-4.22.37-8.11-2.81-8.48-7.21ZM95.89,40.53c.21,2.81,2.7,4.86,5.41,4.63,2.67-.27,4.66-2.41,4.66-5.09.1-.13,0-.29,0-.46-.23-2.82-2.67-4.81-5.48-4.54-2.67.2-4.69,2.32-4.59,5v.46ZM128.75,44.44c-1.33-.01-1.94-.01-3.24-.01l3.93-8.16,3.57-7.41,3.54.37,1.86,7.05,2.57,9.47c-1.19-.22-2.12-.4-3.24-.46l-.92-2.97c-2.34-.36-4.45-.48-6.62-.57l-1.46,2.71ZM131.37,39.06c1.72.08,3.32.27,4.94.5l-.85-3.31-1.07-3.4-1.6,3.4-1.42,2.8ZM115.65,32.02l1.4,12.92,3.39-.36-1.33-12.83,5.13-.32-.2-2.88c-5.73.33-8.09.56-13.77,1.41l.38,2.73,4.99-.69ZM116.19,206.98l-1.15,9.65-4.63-10.58c-1.09-.21-1.76-.49-2.86-.67l-3.64,15.6c1.12.3,2.2.42,3.36.62l1.95-9.58,4.7,10.67c1.07.16,2.27.5,3.51.46l1.74-16.11c-.91-.05-2,.1-2.98-.07ZM207.82,173.49l-11.59-6.38-1.48,2.67,13.9,7.76,5.36-9.6-2.39-1.28-3.8,6.83ZM190.34,175.82l15.78,5.18c-.37.47-.67.92-1,1.39-.27.36-.6.71-.82,1.18l-2.76-.99-4.31,5.38,1.57,2.46c-.64.73-1.37,1.52-2.19,2.33l-6.25-10.36-2.31-3.82,2.28-2.75ZM192.13,179.43l1.87,2.96,1.71,2.98,2.31-2.98.6-.74-6.49-2.21ZM175.56,200.52c.68,1.18,1,2.55,1.06,3.95,0,1.09-.23,2.21-.68,3.22-.74,1.47-1.83,2.79-3.35,3.66-3.71,2.16-8.5.87-10.75-2.94-.08-.22-.18-.46-.33-.72-.45-1.02-.67-2.13-.77-3.22.1-2.81,1.46-5.4,3.98-6.85,3.76-2.13,8.62-.86,10.84,2.91ZM173.77,204.47c0-.95-.25-1.8-.7-2.62-1.31-2.45-4.43-3.24-6.86-1.84-1.71.92-2.58,2.66-2.58,4.46.05.82.25,1.74.74,2.52.14.24.3.5.55.76,1.52,1.82,4.21,2.25,6.28,1.04.57-.28,1.02-.65,1.39-1.04.76-.92,1.19-2.15,1.19-3.28ZM181.39,185.62l6.56,7.08-11.02-3.25c-.92.7-1.53.94-2.34,1.65l9.58,12.88c.82-.63,1.67-1.41,2.43-2.06l-5.82-7.75,11.13,3.35c.77-.66,1.86-1.41,2.61-2.35l-11.1-11.73c-.59.64-1.27,1.49-2.04,2.2ZM251.98,126.16c0,1.47-.07,2.95-.23,4.12l-.04.32-.34.17c-5.36,3.19-12.28,5-19.22,5.2-.16.88-.92,7.15-1.05,8.03,6.47,1.87,12.75,5.4,17.12,9.93l.18.28v.29c-.34,2.47-1.22,5.78-2.19,7.93l-.11.34-.32.05c-6.07,1.75-13.22,1.68-19.83.04-.32.82-2.76,6.65-3.01,7.5,5.8,3.66,10.92,8.7,13.81,14.08l.15.3-.1.31c-.9,2.14-2.6,5.24-4.12,7.1l-.16.28h-.38c-6.19.07-13.11-1.77-19.15-5.13-.55.72-4.58,6.05-5.13,6.77,4.76,4.9,8.36,11.12,9.83,17.24l.1.32-.18.22c-1.38,1.88-3.92,4.36-5.77,5.85l-.22.19-.46-.09c-5.96-1.59-12.26-5.2-17.15-9.93-.72.55-5.73,4.45-6.47,5.01,3.2,5.86,5.14,12.61,5.14,18.7v.85l-.37.21c-1.85,1.49-4.91,3.26-7.1,4.16l-.22.09-.37-.12c-5.36-3.12-10.5-8.22-14.02-14.06-.85.37-6.93,2.98-7.77,3.34.83,3.25,1.33,6.66,1.42,10.02,0,3.4-.59,6.79-1.42,9.86l-.04.3-.33.18c-2.04.85-5.47,1.7-7.86,2.12l-.37.05-.2-.26c-4.62-4.4-8.16-10.65-10.02-17.18-.82.06-7.12.92-8.01,1.1-.11,6.85-1.99,13.79-5.25,19.18l-.18.28-.37.05c-2.19.33-5.7.33-8.08,0l-.3-.05-.21-.28c-3.16-5.38-5.04-12.33-5.19-19.18-.94-.09-7.58-1.04-8.5-1.1-1.82,6.49-5.39,12.71-9.88,17.16l-.24.23-.37-.05c-2.46-.36-5.7-1.31-7.87-2.21l-.26-.13-.11-.28c-.92-3.06-1.39-6.49-1.39-9.89s.48-6.67,1.32-9.92c-.85-.37-6.59-2.69-7.42-3.07-3.55,5.94-8.68,11.1-14.1,14.11l-.29.16-.34-.09c-2.24-1-5.2-2.7-7.11-4.13l-.23-.23v-.65c0-6.17,1.88-12.96,5.1-18.9-.71-.55-6.07-4.62-6.81-5.17-4.91,4.73-11.16,8.29-17.2,9.84l-.31.1-.33-.22c-1.85-1.49-4.22-3.89-5.71-5.77l-.2-.33.09-.32c1.6-6.09,5.22-12.31,9.93-17.14-.54-.73-4.59-5.98-5.17-6.77-5.98,3.35-12.96,5.28-19.16,5.13h-.33l-.22-.21c-1.45-1.92-3.18-4.98-4.12-7.15l-.14-.32.14-.29c3.12-5.46,8.22-10.5,14.04-13.99-.38-.9-2.86-6.76-3.28-7.59-6.62,1.65-13.81,1.7-19.86,0l-.29-.09-.18-.27c-.82-2.04-1.72-5.48-2.09-7.89l-.06-.38.21-.28c4.41-4.49,10.59-8.04,17.21-10-.07-.93-1.04-7.6-1.14-8.52-6.91-.09-13.86-1.88-19.26-5.09l-.27-.18-.03-.37c-.15-1.12-.19-2.59-.19-4.07s.04-2.87.19-4.08l.03-.37.27-.15c5.4-3.19,12.35-5.03,19.26-5.13.14-.91.96-7.4,1.07-8.28-6.55-1.88-12.8-5.46-17.24-9.93l-.18-.22.06-.35c.28-2.49,1.22-5.83,2.15-7.9l.1-.3.32-.09c5.98-1.76,13.21-1.71,19.85-.08.37-.81,2.79-6.66,3.16-7.54-5.87-3.55-11.01-8.6-14.07-14.05l-.16-.34.16-.33c.96-2.19,2.69-5.15,4.05-7.01l.22-.28h.37c6.27-.09,13.19,1.83,19.15,5.13.56-.67,4.63-6.17,5.18-6.9-4.73-4.94-8.32-11.12-9.86-17.24l-.07-.26.13-.27c1.52-1.9,4.03-4.37,5.87-5.82l.3-.18.27.05c6.17,1.58,12.38,5.24,17.22,9.95.71-.56,5.55-4.3,6.27-4.84-3.34-5.84-5.2-12.63-5.2-18.68v-.91l.3-.22c1.82-1.42,4.89-3.18,7.09-4.07l.23-.15.37.16c5.4,3.05,10.48,8.16,14.03,14.01.85-.32,7.15-3.06,8.01-3.4-.82-3.26-1.33-6.64-1.28-9.98,0-3.48.42-6.79,1.34-9.85l.04-.38.33-.09c2.04-.85,5.43-1.76,7.81-2.13l.38-.05.28.24c4.49,4.37,8.08,10.63,9.97,17.23.92-.09,7.54-.93,8.43-1.09.14-6.8,2-13.74,5.25-19.13l.14-.28.34-.09c2.37-.28,5.87-.28,8.17,0l.3.09.19.28c3.27,5.39,5.15,12.34,5.15,19.07,1,.22,7.46,1.06,8.38,1.15,1.94-6.6,5.49-12.81,10.02-17.2l.21-.22.3.09c2.46.27,5.8,1.19,7.94,2.12l.26.1.11.37c.92,3.03,1.37,6.33,1.37,9.75-.05,3.38-.55,6.78-1.37,10.05.82.33,7.11,2.97,7.99,3.33,3.49-5.85,8.5-10.92,13.96-14.01l.31-.16.33.15c2.16.92,5.18,2.66,7.04,4.12l.28.17v.85c0,6.2-1.92,12.97-5.16,18.74.7.54,5.89,4.61,6.67,5.21,4.89-4.75,11.12-8.39,17.24-9.9l.27-.15.27.29c1.85,1.37,4.33,3.96,5.74,5.81l.26.27-.11.31c-1.56,6.13-5.25,12.35-9.95,17.21.55.75,4.46,5.9,5.06,6.64,6.09-3.28,12.99-5.15,19.24-5.04h.29l.2.28c1.52,1.94,3.26,4.95,4.1,7.01l.21.4-.21.3c-3.1,5.41-8.2,10.42-14.05,13.99.35.89,2.73,6.76,3.19,7.58,6.56-1.65,13.78-1.69,19.75,0l.36.07.14.34c.83,2.08,1.8,5.45,2.12,7.93l.05.3-.24.24c-4.39,4.55-10.64,8.11-17.21,9.96.13.91.95,7.31,1.1,8.23,6.92.15,13.81,2,19.17,5.17l.34.2.04.32c.16,1.17.23,2.59.23,4.1ZM62.66,52.65l10.35,11.53c1.45,1.56,3.04,1.36,5.13-.27,13.08-10.26,29.86-16.32,47.74-16.32s34.69,6.04,47.89,16.32c2.06,1.52,3.61,1.83,5.13.27l10.35-11.53c1.17-1.28,1.17-3.03-1.07-4.91-17.36-13.52-38.79-21.86-62.34-21.86s-45.15,8.34-62.21,21.92c-2.23,1.82-2.13,3.58-.97,4.85ZM63.36,101.13c-1.14-.74-2.35-1.58-3.35-1.14-.81.25-1.4,1.09-1.82,2.47-4.85,16.66-4.85,30.78,0,47.21.33,1.07.7,2.14,1.67,2.41.8.33,1.97,0,3.5-1.06l32.04-21.83c1.19-.8,1.91-1.94,1.91-3.08,0-1.24-.73-2.33-1.91-3.17l-32.04-21.82ZM70.37,82.03c.15,1.17,1.48,1.76,2.64,2.31l34.92,16.96c1.39.66,2.68.66,3.73.12.98-.64,1.62-1.76,1.71-3.25l2.82-38.73c.15-1.87-.11-2.97-.78-3.54-.74-.64-1.83-.46-2.88-.26-16.73,4.02-28.93,11.1-40.95,23.63-.97,1.1-1.42,2.02-1.2,2.76ZM70.88,170.6c0,.66.45,1.49,1.3,2.37,12.02,12.65,24.2,19.68,40.92,23.61,1.07.33,2.12.49,2.86-.1.76-.56.97-1.73.85-3.55,0-.06-2.84-38.81-2.84-38.81-.12-1.47-.68-2.59-1.71-3.18-1.04-.61-2.34-.61-3.73.02l-34.88,16.98c-1.22.57-2.54,1.21-2.72,2.35,0,.07-.04.22-.04.32ZM125.88,151.08c13.81,0,25.03-11.21,25.03-25.01s-11.22-25.03-25.03-25.08c-13.8,0-25.02,11.27-25.02,25.08s11.22,25.01,25.02,25.01ZM136.46,195.92c.59.46,1.56.6,3.05.23,16.68-4,28.92-11.07,40.84-23.58.71-.82,1.49-1.67,1.25-2.61-.22-.9-.98-1.72-2.61-2.49l-34.97-16.97c-1.33-.63-2.61-.63-3.68-.07-1.03.65-1.65,1.75-1.75,3.28l-2.83,38.71c-.03,1.27-.18,2.71.7,3.49ZM188.61,150.8c1.04.67,2.24,1.49,3.34,1.11.74-.22,1.38-1.04,1.79-2.5,4.89-16.59,4.89-30.77,0-47.17-.3-1.03-.78-2.09-1.64-2.48-.87-.31-1.97.05-3.54,1.11l-32.06,21.8c-1.24.83-1.87,1.97-1.87,3.15s.63,2.31,1.87,3.13l32.12,21.85ZM181.54,81.42c.04-.66-.37-1.5-1.3-2.42-11.91-12.6-24.14-19.65-40.92-23.64-.94-.24-2.03-.46-2.76.18-.75.6-.97,1.76-.82,3.5l2.77,38.82c.09,1.47.75,2.63,1.73,3.23,1.08.61,2.37.5,3.71-.15l34.96-16.87c1.12-.54,2.39-1.14,2.64-2.33,0-.07.04-.17,0-.32ZM32.27,150.69l14.88-4.32c1.39-.41,2.54-1.87,2.43-3.69-5.34-27.71,1.45-50.18,17.69-68.19,1.64-1.17,1.82-3.58.25-5.22l-10.81-10.87c-1.05-1.2-2.96-1.2-4.6.47-20.73,21.82-31.2,55.31-23.52,89.54.42,1.64,1.72,2.85,3.69,2.28ZM217.24,158.66l-14.92-5.09c-.78-.29-2.82-.29-3.88,2.33-12.05,28.89-40.09,48.66-72.56,48.66s-61.07-20.22-72.6-49.11c-.86-2.17-2.95-2.17-3.75-1.88l-14.83,5.09c-1.61.58-2.58,2.01-1.74,4.07,14.58,37.18,50.81,63.43,92.91,63.43s78.49-26.43,93.11-63.59c.76-1.94-.15-3.33-1.75-3.91ZM200,58.72c-1.46-1.79-3.88-1.52-4.58-.27l-10.78,10.83c-1.58,1.64-1.43,4.05.21,5.22,16.27,18.01,23.07,40.43,17.73,68.19-.12,1.82,1.03,3.28,2.45,3.69l14.9,4.32c1.98.56,3.25-.64,3.68-2.34,7.67-34.18-2.83-67.78-23.61-89.63ZM165.27,54.68l3.43-6.61,9.26-4.3c-.97-.7-2.02-1.19-3-1.83l-6.37,2.91-1.18-6.93c-1.34-.63-2.13-.91-3.52-1.47l1.86,10.07-3.43,6.53,2.97,1.63ZM147.92,204.58c-4.62,1.01-8.18,1.85-12.76,2.56l.42,2.66c1.7-.27,3.25-.47,5.03-.69l2.31,12.81,3.4-.64-2.76-12.78c1.75-.43,3.36-.88,5.1-1.28l-.75-2.64ZM102.54,206.83v.87c-.25,2.12-1.68,4.27-4.01,4.54l.54,7.39c-1.08-.25-2.3-.6-3.45-1.09l-.12-6.95-3.13-1.34-2.53,6.13c-1.03-.34-2.05-.67-3.05-1.16l3.21-7.46.38-.92,2.61-6.16,7.11,2.75c1.58.56,2.31,1.97,2.43,3.42ZM99.56,206.83c-.09-.45-.27-.8-.82-1.05l-3.98-1.47-.9,2.52-.31.92-.03.06,3.62,1.36c1,.44,1.95-.44,2.3-1.41.12-.27.22-.6.12-.92ZM147.82,47.35c-1.27-.37-2.21-.53-3.61-.92l2.57-8.79,1.88-6.27c2.72.68,5.3,1.56,7.89,2.4,1.46.45,2.24,2.11,2.39,3.87.1,2.4-1.09,5-3.51,5.54l.94,7.08c-1.13-.47-1.97-.82-3.23-1.32l-.82-6.19-3.04-.93-1.48,5.53ZM150,39.06l3.55,1.15c.97.28,2.26-1.24,2.26-2.57,0-.63-.22-1.19-1.07-1.38-1.31-.51-2.21-.73-3.65-1.09l-.73,2.47-.37,1.42ZM132.76,214.37l3.43,8.33c-1.12.05-2.17.16-3.17.28l-1.06-2.69-6.87.19-.79,2.82c-1.1-.1-2.12-.13-3.21-.13l2.96-8.8,2.11-6.67.1-.21,3.5-.16.18.42,2.82,6.62ZM130.68,217.4l-1.23-3.03-1.24-3.28-1.08,3.28-1.07,3.23,4.62-.2ZM151.68,203.24l5.25,15c1.03-.36,2.12-.67,3.16-1.12l-5.1-14.93c-1.4.48-2.04.67-3.31,1.05ZM75.43,45.07l-.88-1.58c2.31-1.47,4.8-2.74,7.19-4.02,2.82-1.56,6.8,2.21,6.52,5.6-.05.59-.22,1.14-.58,1.69l5.77,4.2c-1.09.51-1.91.94-3.21,1.51l-5.05-3.69-2.79,1.49,2.97,4.91c-1.15.73-1.85,1.19-3.19,1.97l-6.77-12.07ZM78.92,44.33l.44.75,1.6,2.78,3.33-1.75c.31-.15.49-.54.55-1.03.07-1.5-1.02-3.54-2.6-2.59-1.23.64-1.98,1.09-3.32,1.85Z"></path>
  </g>
</svg><style>@media (prefers-color-scheme: light) { :root { filter: none; } }
@media (prefers-color-scheme: dark) { :root { filter: none; } }
</style></svg>